<svg width="16" height="16" viewBox="0 0 16 16" fill="none" xmlns="http://www.w3.org/2000/svg">
<circle cx="8" cy="8" r="8" fill="#FFD100"/>
<path d="M6.71029 8.0215C6.71029 7.4925 6.59145 7.07083 6.35379 6.7565C6.11612 6.4345 5.76345 6.2735 5.29579 6.2735C5.14245 6.2735 5.00062 6.28117 4.87029 6.2965C4.73995 6.30417 4.63262 6.31567 4.54829 6.331V9.4245C4.65562 9.4935 4.79362 9.551 4.96229 9.597C5.13862 9.643 5.31495 9.666 5.49129 9.666C6.30395 9.666 6.71029 9.11783 6.71029 8.0215ZM8.45829 7.9755C8.45829 8.44317 8.40079 8.86867 8.28579 9.252C8.17079 9.63533 8.00212 9.965 7.77979 10.241C7.55745 10.517 7.28145 10.7317 6.95179 10.885C6.62212 11.0383 6.24262 11.115 5.81329 11.115C5.57562 11.115 5.35329 11.092 5.14629 11.046C4.93929 11 4.73995 10.9348 4.54829 10.8505V13.1275H2.83479V5.158C2.98812 5.112 3.16445 5.06983 3.36379 5.0315C3.56312 4.9855 3.77012 4.94717 3.98479 4.9165C4.20712 4.88583 4.42945 4.86283 4.65179 4.8475C4.88179 4.8245 5.10029 4.813 5.30729 4.813C5.80562 4.813 6.25029 4.88967 6.64129 5.043C7.03229 5.18867 7.36195 5.3995 7.63029 5.6755C7.89862 5.94383 8.10179 6.2735 8.23979 6.6645C8.38545 7.0555 8.45829 7.4925 8.45829 7.9755Z" fill="black"/>
<path d="M11.5012 2.076C11.8232 2.076 12.1184 2.1105 12.3867 2.1795C12.6551 2.24083 12.8621 2.30217 13.0077 2.3635L12.6742 3.732C12.5209 3.663 12.3522 3.61317 12.1682 3.5825C11.9919 3.54417 11.8271 3.525 11.6737 3.525C11.4667 3.525 11.2904 3.55567 11.1447 3.617C11.0067 3.67067 10.8956 3.74733 10.8112 3.847C10.7346 3.94667 10.6771 4.0655 10.6387 4.2035C10.6081 4.3415 10.5927 4.491 10.5927 4.652V4.951H12.7087V6.377H10.5927V11H8.87922V4.629C8.87922 3.847 9.09772 3.226 9.53472 2.766C9.97939 2.306 10.6349 2.076 11.5012 2.076Z" fill="black"/>
</svg>
