<svg width="60" height="60" viewBox="0 0 60 60" fill="none" xmlns="http://www.w3.org/2000/svg">
<circle cx="30" cy="30" r="30" fill="#FFD100"/>
<path d="M25.7722 34.64C25.7722 32.8 25.3589 31.3333 24.5322 30.24C23.7055 29.12 22.4789 28.56 20.8522 28.56C20.3189 28.56 19.8255 28.5867 19.3722 28.64C18.9189 28.6667 18.5455 28.7067 18.2522 28.76V39.52C18.6255 39.76 19.1055 39.96 19.6922 40.12C20.3055 40.28 20.9189 40.36 21.5322 40.36C24.3589 40.36 25.7722 38.4533 25.7722 34.64ZM31.8522 34.48C31.8522 36.1067 31.6522 37.5867 31.2522 38.92C30.8522 40.2533 30.2655 41.4 29.4922 42.36C28.7189 43.32 27.7589 44.0667 26.6122 44.6C25.4655 45.1333 24.1455 45.4 22.6522 45.4C21.8255 45.4 21.0522 45.32 20.3322 45.16C19.6122 45 18.9189 44.7733 18.2522 44.48V52.4H12.2922V24.68C12.8255 24.52 13.4389 24.3733 14.1322 24.24C14.8255 24.08 15.5455 23.9467 16.2922 23.84C17.0655 23.7333 17.8389 23.6533 18.6122 23.6C19.4122 23.52 20.1722 23.48 20.8922 23.48C22.6255 23.48 24.1722 23.7467 25.5322 24.28C26.8922 24.7867 28.0389 25.52 28.9722 26.48C29.9055 27.4133 30.6122 28.56 31.0922 29.92C31.5989 31.28 31.8522 32.8 31.8522 34.48ZM45.5528 13.96C46.6728 13.96 47.6995 14.08 48.6328 14.32C49.5661 14.5333 50.2861 14.7467 50.7928 14.96L49.6328 19.72C49.0995 19.48 48.5128 19.3067 47.8728 19.2C47.2595 19.0667 46.6861 19 46.1528 19C45.4328 19 44.8195 19.1067 44.3128 19.32C43.8328 19.5067 43.4461 19.7733 43.1528 20.12C42.8861 20.4667 42.6861 20.88 42.5528 21.36C42.4461 21.84 42.3928 22.36 42.3928 22.92V23.96H49.7528V28.92H42.3928V45H36.4328V22.84C36.4328 20.12 37.1928 17.96 38.7128 16.36C40.2595 14.76 42.5395 13.96 45.5528 13.96Z" fill="black"/>
</svg>
