<svg width="512" height="512" viewBox="0 0 512 512" fill="none" xmlns="http://www.w3.org/2000/svg">
<path d="M464 256C464 141.13 370.87 48 256 48C141.13 48 48 141.13 48 256C48 370.87 141.13 464 256 464C370.87 464 464 370.87 464 256ZM251.35 347.36C249.858 345.88 248.672 344.121 247.86 342.183C247.048 340.244 246.626 338.165 246.617 336.064C246.609 333.962 247.015 331.88 247.811 329.935C248.608 327.99 249.78 326.222 251.26 324.73L303.58 272H170C165.757 272 161.687 270.314 158.686 267.314C155.686 264.313 154 260.243 154 256C154 251.757 155.686 247.687 158.686 244.686C161.687 241.686 165.757 240 170 240H303.58L251.26 187.27C249.78 185.777 248.609 184.007 247.813 182.061C247.017 180.115 246.612 178.032 246.621 175.929C246.63 173.827 247.054 171.747 247.867 169.808C248.68 167.87 249.867 166.11 251.36 164.63C252.853 163.15 254.623 161.979 256.569 161.183C258.515 160.387 260.598 159.982 262.701 159.991C266.947 160.01 271.011 161.714 274 164.73L353.39 244.73C356.364 247.727 358.033 251.778 358.033 256C358.033 260.222 356.364 264.273 353.39 267.27L274 347.27C272.52 348.765 270.759 349.953 268.819 350.767C266.879 351.581 264.798 352.004 262.694 352.013C260.59 352.021 258.505 351.614 256.559 350.816C254.612 350.018 252.842 348.843 251.35 347.36V347.36Z" fill="#0090E3"/>
</svg>
