<svg width="398" height="512" viewBox="0 0 398 512" fill="none" xmlns="http://www.w3.org/2000/svg">
<path d="M222 96C221.999 80.8631 217.703 66.0371 209.612 53.2442C201.521 40.4512 189.967 30.2162 176.291 23.728C162.615 17.2399 147.379 14.7648 132.352 16.5902C117.326 18.4156 103.126 24.4667 91.4011 34.0406C79.6765 43.6145 70.9086 56.3183 66.1159 70.6764C61.3232 85.0345 60.7023 100.458 64.3254 115.155C67.9485 129.852 75.6668 143.219 86.5839 153.704C97.5011 164.19 111.169 171.363 126 174.39V457.56C126.002 461.811 126.848 466.019 128.49 469.94L138.56 493.94C138.897 494.558 139.395 495.073 140 495.432C140.605 495.791 141.296 495.98 142 495.98C142.704 495.98 143.395 495.791 144 495.432C144.605 495.073 145.103 494.558 145.44 493.94L155.51 469.94C157.152 466.019 157.998 461.811 158 457.56V174.39C176.057 170.679 192.282 160.856 203.94 146.576C215.599 132.297 221.977 114.434 222 96ZM166 96C161.253 96 156.613 94.5924 152.666 91.9553C148.72 89.3181 145.643 85.5698 143.827 81.1844C142.01 76.799 141.535 71.9734 142.461 67.3178C143.387 62.6623 145.673 58.3859 149.029 55.0294C152.386 51.673 156.662 49.3872 161.318 48.4612C165.973 47.5351 170.799 48.0104 175.184 49.8269C179.57 51.6434 183.318 54.7195 185.955 58.6663C188.592 62.6131 190 67.2533 190 72C190 78.3652 187.471 84.4697 182.971 88.9706C178.47 93.4714 172.365 96 166 96Z" fill="#0090E3"/>
</svg>
